<svg width="24" height="24" viewBox="0 0 24 24" fill="none" xmlns="http://www.w3.org/2000/svg">
<path d="M21.731 2.26893C21.2387 1.77675 20.5711 1.50024 19.875 1.50024C19.1789 1.50024 18.5113 1.77675 18.019 2.26893L16.862 3.42593L20.574 7.13793L21.731 5.98093C22.2232 5.48866 22.4997 4.82105 22.4997 4.12493C22.4997 3.42882 22.2232 2.7612 21.731 2.26893ZM19.513 8.19893L15.801 4.48693L7.40101 12.8869C6.78386 13.5038 6.33019 14.2647 6.08101 15.1009L5.28101 17.7859C5.24239 17.9155 5.23951 18.0531 5.27267 18.1842C5.30584 18.3152 5.37382 18.4349 5.46943 18.5305C5.56503 18.6261 5.6847 18.6941 5.81577 18.7273C5.94684 18.7604 6.08444 18.7576 6.21401 18.7189L8.89901 17.9189C9.73524 17.6698 10.4962 17.2161 11.113 16.5989L19.513 8.19893Z" fill="#999B9E"/>
<path d="M5.25 5.25C4.45435 5.25 3.69129 5.56607 3.12868 6.12868C2.56607 6.69129 2.25 7.45435 2.25 8.25V18.75C2.25 19.5456 2.56607 20.3087 3.12868 20.8713C3.69129 21.4339 4.45435 21.75 5.25 21.75H15.75C16.5456 21.75 17.3087 21.4339 17.8713 20.8713C18.4339 20.3087 18.75 19.5456 18.75 18.75V13.5C18.75 13.3011 18.671 13.1103 18.5303 12.9697C18.3897 12.829 18.1989 12.75 18 12.75C17.8011 12.75 17.6103 12.829 17.4697 12.9697C17.329 13.1103 17.25 13.3011 17.25 13.5V18.75C17.25 19.1478 17.092 19.5294 16.8107 19.8107C16.5294 20.092 16.1478 20.25 15.75 20.25H5.25C4.85218 20.25 4.47064 20.092 4.18934 19.8107C3.90804 19.5294 3.75 19.1478 3.75 18.75V8.25C3.75 7.85218 3.90804 7.47064 4.18934 7.18934C4.47064 6.90804 4.85218 6.75 5.25 6.75H10.5C10.6989 6.75 10.8897 6.67098 11.0303 6.53033C11.171 6.38968 11.25 6.19891 11.25 6C11.25 5.80109 11.171 5.61032 11.0303 5.46967C10.8897 5.32902 10.6989 5.25 10.5 5.25H5.25Z" fill="#999B9E"/>
</svg>
