<svg width="20" height="20" viewBox="0 0 14 18" fill="none" xmlns="http://www.w3.org/2000/svg">
<path id="Vector" d="M9.98153 7.61L10.0253 8.03343L10.4113 8.21291C11.9622 8.93398 13 10.1426 13 11.5312C13 11.583 12.9581 11.625 12.9063 11.625H8.12504H7.37504V12.375V15.9208L7.00002 16.6709L6.625 15.9208V12.375V11.625H5.875H1.09375C1.04197 11.625 1 11.583 1 11.5312C1 10.1556 2.02298 8.94086 3.58865 8.21291L3.97467 8.03344L4.01847 7.61L4.44861 3.45218L4.53418 2.625H3.70259H2.21875C2.16697 2.625 2.125 2.58303 2.125 2.53125V0.84375C2.125 0.791967 2.16697 0.75 2.21875 0.75H11.7812C11.833 0.75 11.875 0.791968 11.875 0.84375V2.53125C11.875 2.58303 11.833 2.625 11.7812 2.625H10.2974H9.46582L9.55139 3.45218L9.98153 7.61Z" fill="#999B9E" stroke="#999B9E" stroke-width="1.5"/>
</svg>
